<?xml version="1.0" encoding="UTF-8" standalone="no"?>
<!-- Created with Inkscape (http://www.inkscape.org/) -->
<svg xmlns:rdf="http://www.w3.org/1999/02/22-rdf-syntax-ns#" xmlns="http://www.w3.org/2000/svg" xmlns:cc="http://web.resource.org/cc/" xmlns:dc="http://purl.org/dc/elements/1.1/" xmlns:svg="http://www.w3.org/2000/svg" xmlns:inkscape="http://www.inkscape.org/namespaces/inkscape" xmlns:sodipodi="http://sodipodi.sourceforge.net/DTD/sodipodi-0.dtd" xmlns:ns1="http://sozi.baierouge.fr" xmlns:xlink="http://www.w3.org/1999/xlink" id="svg2" viewBox="0 0 720 720" version="1.1" inkscape:version="0.91 r13725">
  <g id="layer1" transform="translate(0 -332.36)">
    <g id="g3777" transform="matrix(1.696 0 0 1.696 -250.65 -453.5)">
      <g id="g3126">
        <g id="g3034">
          <path id="path3016" style="stroke:#000000;stroke-width:1px;fill:none" d="m352.55 688.6h30"/>
          <path id="path3020" style="stroke:#000000;stroke-width:1px;fill:none" d="m367.55 688.6 15-25.981"/>
          <path id="path3022" style="stroke:#000000;stroke-width:1px;fill:none" d="m375.05 675.61-15-25.981"/>
          <path id="path3026" style="stroke:#000000;stroke-width:1px;fill:none" d="m337.55 662.62h30"/>
          <path id="path3028" style="stroke:#000000;stroke-width:1px;fill:none" d="m337.55 688.6 15-25.981"/>
          <path id="path3030" style="stroke:#000000;stroke-width:1px;fill:none" d="m360.05 701.59-15-25.981"/>
        </g>
        <g id="g3042" transform="translate(45)">
          <path id="path3044" style="stroke:#000000;stroke-width:1px;fill:none" d="m352.55 688.6h30"/>
          <path id="path3046" style="stroke:#000000;stroke-width:1px;fill:none" d="m367.55 688.6 15-25.981"/>
          <path id="path3048" style="stroke:#000000;stroke-width:1px;fill:none" d="m375.05 675.61-15-25.981"/>
          <path id="path3050" style="stroke:#000000;stroke-width:1px;fill:none" d="m337.55 662.62h30"/>
          <path id="path3052" style="stroke:#000000;stroke-width:1px;fill:none" d="m337.55 688.6 15-25.981"/>
          <path id="path3054" style="stroke:#000000;stroke-width:1px;fill:none" d="m360.05 701.59-15-25.981"/>
        </g>
        <g id="g3056" transform="translate(22.5 -38.971)">
          <path id="path3058" style="stroke:#000000;stroke-width:1px;fill:none" d="m352.55 688.6h30"/>
          <path id="path3060" style="stroke:#000000;stroke-width:1px;fill:none" d="m367.55 688.6 15-25.981"/>
          <path id="path3062" style="stroke:#000000;stroke-width:1px;fill:none" d="m375.05 675.61-15-25.981"/>
          <path id="path3064" style="stroke:#000000;stroke-width:1px;fill:none" d="m337.55 662.62h30"/>
          <path id="path3066" style="stroke:#000000;stroke-width:1px;fill:none" d="m337.55 688.6 15-25.981"/>
          <path id="path3068" style="stroke:#000000;stroke-width:1px;fill:none" d="m360.05 701.59-15-25.981"/>
        </g>
        <g id="g3070" transform="translate(-22.5 -38.971)">
          <path id="path3072" style="stroke:#000000;stroke-width:1px;fill:none" d="m352.55 688.6h30"/>
          <path id="path3074" style="stroke:#000000;stroke-width:1px;fill:none" d="m367.55 688.6 15-25.981"/>
          <path id="path3076" style="stroke:#000000;stroke-width:1px;fill:none" d="m375.05 675.61-15-25.981"/>
          <path id="path3078" style="stroke:#000000;stroke-width:1px;fill:none" d="m337.55 662.62h30"/>
          <path id="path3080" style="stroke:#000000;stroke-width:1px;fill:none" d="m337.55 688.6 15-25.981"/>
          <path id="path3082" style="stroke:#000000;stroke-width:1px;fill:none" d="m360.05 701.59-15-25.981"/>
        </g>
        <g id="g3084" transform="translate(-45)">
          <path id="path3086" style="stroke:#000000;stroke-width:1px;fill:none" d="m352.55 688.6h30"/>
          <path id="path3088" style="stroke:#000000;stroke-width:1px;fill:none" d="m367.55 688.6 15-25.981"/>
          <path id="path3090" style="stroke:#000000;stroke-width:1px;fill:none" d="m375.05 675.61-15-25.981"/>
          <path id="path3092" style="stroke:#000000;stroke-width:1px;fill:none" d="m337.55 662.62h30"/>
          <path id="path3094" style="stroke:#000000;stroke-width:1px;fill:none" d="m337.55 688.6 15-25.981"/>
          <path id="path3096" style="stroke:#000000;stroke-width:1px;fill:none" d="m360.05 701.59-15-25.981"/>
        </g>
        <g id="g3098" transform="translate(-22.5 38.971)">
          <path id="path3100" style="stroke:#000000;stroke-width:1px;fill:none" d="m352.55 688.6h30"/>
          <path id="path3102" style="stroke:#000000;stroke-width:1px;fill:none" d="m367.55 688.6 15-25.981"/>
          <path id="path3104" style="stroke:#000000;stroke-width:1px;fill:none" d="m375.05 675.61-15-25.981"/>
          <path id="path3106" style="stroke:#000000;stroke-width:1px;fill:none" d="m337.55 662.62h30"/>
          <path id="path3108" style="stroke:#000000;stroke-width:1px;fill:none" d="m337.55 688.6 15-25.981"/>
          <path id="path3110" style="stroke:#000000;stroke-width:1px;fill:none" d="m360.05 701.59-15-25.981"/>
        </g>
        <g id="g3112" transform="translate(22.5 38.971)">
          <path id="path3114" style="stroke:#000000;stroke-width:1px;fill:none" d="m352.55 688.6h30"/>
          <path id="path3116" style="stroke:#000000;stroke-width:1px;fill:none" d="m367.55 688.6 15-25.981"/>
          <path id="path3118" style="stroke:#000000;stroke-width:1px;fill:none" d="m375.05 675.61-15-25.981"/>
          <path id="path3120" style="stroke:#000000;stroke-width:1px;fill:none" d="m337.55 662.62h30"/>
          <path id="path3122" style="stroke:#000000;stroke-width:1px;fill:none" d="m337.55 688.6 15-25.981"/>
          <path id="path3124" style="stroke:#000000;stroke-width:1px;fill:none" d="m360.05 701.59-15-25.981"/>
        </g>
      </g>
      <g id="g3177" transform="translate(135)">
        <g id="g3179">
          <path id="path3181" style="stroke:#000000;stroke-width:1px;fill:none" d="m352.55 688.6h30"/>
          <path id="path3183" style="stroke:#000000;stroke-width:1px;fill:none" d="m367.55 688.6 15-25.981"/>
          <path id="path3185" style="stroke:#000000;stroke-width:1px;fill:none" d="m375.05 675.61-15-25.981"/>
          <path id="path3187" style="stroke:#000000;stroke-width:1px;fill:none" d="m337.55 662.62h30"/>
          <path id="path3189" style="stroke:#000000;stroke-width:1px;fill:none" d="m337.55 688.6 15-25.981"/>
          <path id="path3191" style="stroke:#000000;stroke-width:1px;fill:none" d="m360.05 701.59-15-25.981"/>
        </g>
        <g id="g3193" transform="translate(45)">
          <path id="path3195" style="stroke:#000000;stroke-width:1px;fill:none" d="m352.55 688.6h30"/>
          <path id="path3197" style="stroke:#000000;stroke-width:1px;fill:none" d="m367.55 688.6 15-25.981"/>
          <path id="path3199" style="stroke:#000000;stroke-width:1px;fill:none" d="m375.05 675.61-15-25.981"/>
          <path id="path3201" style="stroke:#000000;stroke-width:1px;fill:none" d="m337.55 662.62h30"/>
          <path id="path3203" style="stroke:#000000;stroke-width:1px;fill:none" d="m337.55 688.6 15-25.981"/>
          <path id="path3205" style="stroke:#000000;stroke-width:1px;fill:none" d="m360.05 701.59-15-25.981"/>
        </g>
        <g id="g3207" transform="translate(22.5 -38.971)">
          <path id="path3209" style="stroke:#000000;stroke-width:1px;fill:none" d="m352.55 688.6h30"/>
          <path id="path3211" style="stroke:#000000;stroke-width:1px;fill:none" d="m367.55 688.6 15-25.981"/>
          <path id="path3213" style="stroke:#000000;stroke-width:1px;fill:none" d="m375.05 675.61-15-25.981"/>
          <path id="path3215" style="stroke:#000000;stroke-width:1px;fill:none" d="m337.55 662.62h30"/>
          <path id="path3217" style="stroke:#000000;stroke-width:1px;fill:none" d="m337.55 688.6 15-25.981"/>
          <path id="path3219" style="stroke:#000000;stroke-width:1px;fill:none" d="m360.05 701.59-15-25.981"/>
        </g>
        <g id="g3221" transform="translate(-22.5 -38.971)">
          <path id="path3223" style="stroke:#000000;stroke-width:1px;fill:none" d="m352.55 688.6h30"/>
          <path id="path3225" style="stroke:#000000;stroke-width:1px;fill:none" d="m367.55 688.6 15-25.981"/>
          <path id="path3227" style="stroke:#000000;stroke-width:1px;fill:none" d="m375.05 675.61-15-25.981"/>
          <path id="path3229" style="stroke:#000000;stroke-width:1px;fill:none" d="m337.55 662.62h30"/>
          <path id="path3231" style="stroke:#000000;stroke-width:1px;fill:none" d="m337.55 688.6 15-25.981"/>
          <path id="path3233" style="stroke:#000000;stroke-width:1px;fill:none" d="m360.05 701.59-15-25.981"/>
        </g>
        <g id="g3235" transform="translate(-45)">
          <path id="path3237" style="stroke:#000000;stroke-width:1px;fill:none" d="m352.55 688.6h30"/>
          <path id="path3239" style="stroke:#000000;stroke-width:1px;fill:none" d="m367.55 688.6 15-25.981"/>
          <path id="path3241" style="stroke:#000000;stroke-width:1px;fill:none" d="m375.05 675.61-15-25.981"/>
          <path id="path3243" style="stroke:#000000;stroke-width:1px;fill:none" d="m337.55 662.62h30"/>
          <path id="path3245" style="stroke:#000000;stroke-width:1px;fill:none" d="m337.55 688.6 15-25.981"/>
          <path id="path3247" style="stroke:#000000;stroke-width:1px;fill:none" d="m360.05 701.59-15-25.981"/>
        </g>
        <g id="g3249" transform="translate(-22.5 38.971)">
          <path id="path3251" style="stroke:#000000;stroke-width:1px;fill:none" d="m352.55 688.6h30"/>
          <path id="path3253" style="stroke:#000000;stroke-width:1px;fill:none" d="m367.55 688.6 15-25.981"/>
          <path id="path3255" style="stroke:#000000;stroke-width:1px;fill:none" d="m375.05 675.61-15-25.981"/>
          <path id="path3257" style="stroke:#000000;stroke-width:1px;fill:none" d="m337.55 662.62h30"/>
          <path id="path3259" style="stroke:#000000;stroke-width:1px;fill:none" d="m337.55 688.6 15-25.981"/>
          <path id="path3261" style="stroke:#000000;stroke-width:1px;fill:none" d="m360.05 701.59-15-25.981"/>
        </g>
        <g id="g3263" transform="translate(22.5 38.971)">
          <path id="path3265" style="stroke:#000000;stroke-width:1px;fill:none" d="m352.55 688.6h30"/>
          <path id="path3267" style="stroke:#000000;stroke-width:1px;fill:none" d="m367.55 688.6 15-25.981"/>
          <path id="path3269" style="stroke:#000000;stroke-width:1px;fill:none" d="m375.05 675.61-15-25.981"/>
          <path id="path3271" style="stroke:#000000;stroke-width:1px;fill:none" d="m337.55 662.62h30"/>
          <path id="path3273" style="stroke:#000000;stroke-width:1px;fill:none" d="m337.55 688.6 15-25.981"/>
          <path id="path3275" style="stroke:#000000;stroke-width:1px;fill:none" d="m360.05 701.59-15-25.981"/>
        </g>
      </g>
      <g id="g3277" transform="translate(67.5 -116.91)">
        <g id="g3279">
          <path id="path3281" style="stroke:#000000;stroke-width:1px;fill:none" d="m352.55 688.6h30"/>
          <path id="path3283" style="stroke:#000000;stroke-width:1px;fill:none" d="m367.55 688.6 15-25.981"/>
          <path id="path3285" style="stroke:#000000;stroke-width:1px;fill:none" d="m375.05 675.61-15-25.981"/>
          <path id="path3287" style="stroke:#000000;stroke-width:1px;fill:none" d="m337.55 662.62h30"/>
          <path id="path3289" style="stroke:#000000;stroke-width:1px;fill:none" d="m337.55 688.6 15-25.981"/>
          <path id="path3291" style="stroke:#000000;stroke-width:1px;fill:none" d="m360.05 701.59-15-25.981"/>
        </g>
        <g id="g3293" transform="translate(45)">
          <path id="path3295" style="stroke:#000000;stroke-width:1px;fill:none" d="m352.55 688.6h30"/>
          <path id="path3297" style="stroke:#000000;stroke-width:1px;fill:none" d="m367.55 688.6 15-25.981"/>
          <path id="path3299" style="stroke:#000000;stroke-width:1px;fill:none" d="m375.05 675.61-15-25.981"/>
          <path id="path3301" style="stroke:#000000;stroke-width:1px;fill:none" d="m337.55 662.62h30"/>
          <path id="path3303" style="stroke:#000000;stroke-width:1px;fill:none" d="m337.55 688.6 15-25.981"/>
          <path id="path3305" style="stroke:#000000;stroke-width:1px;fill:none" d="m360.05 701.59-15-25.981"/>
        </g>
        <g id="g3307" transform="translate(22.5 -38.971)">
          <path id="path3309" style="stroke:#000000;stroke-width:1px;fill:none" d="m352.55 688.6h30"/>
          <path id="path3311" style="stroke:#000000;stroke-width:1px;fill:none" d="m367.55 688.6 15-25.981"/>
          <path id="path3313" style="stroke:#000000;stroke-width:1px;fill:none" d="m375.05 675.61-15-25.981"/>
          <path id="path3315" style="stroke:#000000;stroke-width:1px;fill:none" d="m337.55 662.62h30"/>
          <path id="path3317" style="stroke:#000000;stroke-width:1px;fill:none" d="m337.55 688.6 15-25.981"/>
          <path id="path3319" style="stroke:#000000;stroke-width:1px;fill:none" d="m360.05 701.59-15-25.981"/>
        </g>
        <g id="g3321" transform="translate(-22.5 -38.971)">
          <path id="path3323" style="stroke:#000000;stroke-width:1px;fill:none" d="m352.55 688.6h30"/>
          <path id="path3325" style="stroke:#000000;stroke-width:1px;fill:none" d="m367.55 688.6 15-25.981"/>
          <path id="path3327" style="stroke:#000000;stroke-width:1px;fill:none" d="m375.05 675.61-15-25.981"/>
          <path id="path3329" style="stroke:#000000;stroke-width:1px;fill:none" d="m337.55 662.62h30"/>
          <path id="path3331" style="stroke:#000000;stroke-width:1px;fill:none" d="m337.55 688.6 15-25.981"/>
          <path id="path3333" style="stroke:#000000;stroke-width:1px;fill:none" d="m360.05 701.59-15-25.981"/>
        </g>
        <g id="g3335" transform="translate(-45)">
          <path id="path3337" style="stroke:#000000;stroke-width:1px;fill:none" d="m352.55 688.6h30"/>
          <path id="path3339" style="stroke:#000000;stroke-width:1px;fill:none" d="m367.55 688.6 15-25.981"/>
          <path id="path3341" style="stroke:#000000;stroke-width:1px;fill:none" d="m375.05 675.61-15-25.981"/>
          <path id="path3343" style="stroke:#000000;stroke-width:1px;fill:none" d="m337.55 662.62h30"/>
          <path id="path3345" style="stroke:#000000;stroke-width:1px;fill:none" d="m337.55 688.6 15-25.981"/>
          <path id="path3347" style="stroke:#000000;stroke-width:1px;fill:none" d="m360.05 701.59-15-25.981"/>
        </g>
        <g id="g3349" transform="translate(-22.5 38.971)">
          <path id="path3351" style="stroke:#000000;stroke-width:1px;fill:none" d="m352.55 688.6h30"/>
          <path id="path3353" style="stroke:#000000;stroke-width:1px;fill:none" d="m367.55 688.6 15-25.981"/>
          <path id="path3355" style="stroke:#000000;stroke-width:1px;fill:none" d="m375.05 675.61-15-25.981"/>
          <path id="path3357" style="stroke:#000000;stroke-width:1px;fill:none" d="m337.55 662.62h30"/>
          <path id="path3359" style="stroke:#000000;stroke-width:1px;fill:none" d="m337.55 688.6 15-25.981"/>
          <path id="path3361" style="stroke:#000000;stroke-width:1px;fill:none" d="m360.05 701.59-15-25.981"/>
        </g>
        <g id="g3363" transform="translate(22.5 38.971)">
          <path id="path3365" style="stroke:#000000;stroke-width:1px;fill:none" d="m352.55 688.6h30"/>
          <path id="path3367" style="stroke:#000000;stroke-width:1px;fill:none" d="m367.55 688.6 15-25.981"/>
          <path id="path3369" style="stroke:#000000;stroke-width:1px;fill:none" d="m375.05 675.61-15-25.981"/>
          <path id="path3371" style="stroke:#000000;stroke-width:1px;fill:none" d="m337.55 662.62h30"/>
          <path id="path3373" style="stroke:#000000;stroke-width:1px;fill:none" d="m337.55 688.6 15-25.981"/>
          <path id="path3375" style="stroke:#000000;stroke-width:1px;fill:none" d="m360.05 701.59-15-25.981"/>
        </g>
      </g>
      <g id="g3377" transform="translate(-67.5 -116.91)">
        <g id="g3379">
          <path id="path3381" style="stroke:#000000;stroke-width:1px;fill:none" d="m352.55 688.6h30"/>
          <path id="path3383" style="stroke:#000000;stroke-width:1px;fill:none" d="m367.55 688.6 15-25.981"/>
          <path id="path3385" style="stroke:#000000;stroke-width:1px;fill:none" d="m375.05 675.61-15-25.981"/>
          <path id="path3387" style="stroke:#000000;stroke-width:1px;fill:none" d="m337.55 662.62h30"/>
          <path id="path3389" style="stroke:#000000;stroke-width:1px;fill:none" d="m337.55 688.6 15-25.981"/>
          <path id="path3391" style="stroke:#000000;stroke-width:1px;fill:none" d="m360.05 701.59-15-25.981"/>
        </g>
        <g id="g3393" transform="translate(45)">
          <path id="path3395" style="stroke:#000000;stroke-width:1px;fill:none" d="m352.55 688.6h30"/>
          <path id="path3397" style="stroke:#000000;stroke-width:1px;fill:none" d="m367.55 688.6 15-25.981"/>
          <path id="path3399" style="stroke:#000000;stroke-width:1px;fill:none" d="m375.05 675.61-15-25.981"/>
          <path id="path3401" style="stroke:#000000;stroke-width:1px;fill:none" d="m337.55 662.62h30"/>
          <path id="path3403" style="stroke:#000000;stroke-width:1px;fill:none" d="m337.55 688.6 15-25.981"/>
          <path id="path3405" style="stroke:#000000;stroke-width:1px;fill:none" d="m360.05 701.59-15-25.981"/>
        </g>
        <g id="g3407" transform="translate(22.5 -38.971)">
          <path id="path3409" style="stroke:#000000;stroke-width:1px;fill:none" d="m352.55 688.6h30"/>
          <path id="path3411" style="stroke:#000000;stroke-width:1px;fill:none" d="m367.55 688.6 15-25.981"/>
          <path id="path3413" style="stroke:#000000;stroke-width:1px;fill:none" d="m375.05 675.61-15-25.981"/>
          <path id="path3415" style="stroke:#000000;stroke-width:1px;fill:none" d="m337.55 662.62h30"/>
          <path id="path3417" style="stroke:#000000;stroke-width:1px;fill:none" d="m337.55 688.6 15-25.981"/>
          <path id="path3419" style="stroke:#000000;stroke-width:1px;fill:none" d="m360.05 701.59-15-25.981"/>
        </g>
        <g id="g3421" transform="translate(-22.5 -38.971)">
          <path id="path3423" style="stroke:#000000;stroke-width:1px;fill:none" d="m352.55 688.6h30"/>
          <path id="path3425" style="stroke:#000000;stroke-width:1px;fill:none" d="m367.55 688.6 15-25.981"/>
          <path id="path3427" style="stroke:#000000;stroke-width:1px;fill:none" d="m375.05 675.61-15-25.981"/>
          <path id="path3429" style="stroke:#000000;stroke-width:1px;fill:none" d="m337.55 662.62h30"/>
          <path id="path3431" style="stroke:#000000;stroke-width:1px;fill:none" d="m337.55 688.6 15-25.981"/>
          <path id="path3433" style="stroke:#000000;stroke-width:1px;fill:none" d="m360.05 701.59-15-25.981"/>
        </g>
        <g id="g3435" transform="translate(-45)">
          <path id="path3437" style="stroke:#000000;stroke-width:1px;fill:none" d="m352.55 688.6h30"/>
          <path id="path3439" style="stroke:#000000;stroke-width:1px;fill:none" d="m367.55 688.6 15-25.981"/>
          <path id="path3441" style="stroke:#000000;stroke-width:1px;fill:none" d="m375.05 675.61-15-25.981"/>
          <path id="path3443" style="stroke:#000000;stroke-width:1px;fill:none" d="m337.55 662.62h30"/>
          <path id="path3445" style="stroke:#000000;stroke-width:1px;fill:none" d="m337.55 688.6 15-25.981"/>
          <path id="path3447" style="stroke:#000000;stroke-width:1px;fill:none" d="m360.05 701.59-15-25.981"/>
        </g>
        <g id="g3449" transform="translate(-22.5 38.971)">
          <path id="path3451" style="stroke:#000000;stroke-width:1px;fill:none" d="m352.55 688.6h30"/>
          <path id="path3453" style="stroke:#000000;stroke-width:1px;fill:none" d="m367.55 688.6 15-25.981"/>
          <path id="path3455" style="stroke:#000000;stroke-width:1px;fill:none" d="m375.05 675.61-15-25.981"/>
          <path id="path3457" style="stroke:#000000;stroke-width:1px;fill:none" d="m337.55 662.62h30"/>
          <path id="path3459" style="stroke:#000000;stroke-width:1px;fill:none" d="m337.55 688.6 15-25.981"/>
          <path id="path3461" style="stroke:#000000;stroke-width:1px;fill:none" d="m360.05 701.59-15-25.981"/>
        </g>
        <g id="g3463" transform="translate(22.5 38.971)">
          <path id="path3465" style="stroke:#000000;stroke-width:1px;fill:none" d="m352.55 688.6h30"/>
          <path id="path3467" style="stroke:#000000;stroke-width:1px;fill:none" d="m367.55 688.6 15-25.981"/>
          <path id="path3469" style="stroke:#000000;stroke-width:1px;fill:none" d="m375.05 675.61-15-25.981"/>
          <path id="path3471" style="stroke:#000000;stroke-width:1px;fill:none" d="m337.55 662.62h30"/>
          <path id="path3473" style="stroke:#000000;stroke-width:1px;fill:none" d="m337.55 688.6 15-25.981"/>
          <path id="path3475" style="stroke:#000000;stroke-width:1px;fill:none" d="m360.05 701.59-15-25.981"/>
        </g>
      </g>
      <g id="g3477" transform="translate(-135)">
        <g id="g3479">
          <path id="path3481" style="stroke:#000000;stroke-width:1px;fill:none" d="m352.55 688.6h30"/>
          <path id="path3483" style="stroke:#000000;stroke-width:1px;fill:none" d="m367.55 688.6 15-25.981"/>
          <path id="path3485" style="stroke:#000000;stroke-width:1px;fill:none" d="m375.05 675.61-15-25.981"/>
          <path id="path3487" style="stroke:#000000;stroke-width:1px;fill:none" d="m337.55 662.62h30"/>
          <path id="path3489" style="stroke:#000000;stroke-width:1px;fill:none" d="m337.55 688.6 15-25.981"/>
          <path id="path3491" style="stroke:#000000;stroke-width:1px;fill:none" d="m360.05 701.59-15-25.981"/>
        </g>
        <g id="g3493" transform="translate(45)">
          <path id="path3495" style="stroke:#000000;stroke-width:1px;fill:none" d="m352.55 688.6h30"/>
          <path id="path3497" style="stroke:#000000;stroke-width:1px;fill:none" d="m367.55 688.6 15-25.981"/>
          <path id="path3499" style="stroke:#000000;stroke-width:1px;fill:none" d="m375.05 675.61-15-25.981"/>
          <path id="path3501" style="stroke:#000000;stroke-width:1px;fill:none" d="m337.55 662.62h30"/>
          <path id="path3503" style="stroke:#000000;stroke-width:1px;fill:none" d="m337.55 688.6 15-25.981"/>
          <path id="path3505" style="stroke:#000000;stroke-width:1px;fill:none" d="m360.05 701.59-15-25.981"/>
        </g>
        <g id="g3507" transform="translate(22.5 -38.971)">
          <path id="path3509" style="stroke:#000000;stroke-width:1px;fill:none" d="m352.55 688.6h30"/>
          <path id="path3511" style="stroke:#000000;stroke-width:1px;fill:none" d="m367.55 688.6 15-25.981"/>
          <path id="path3513" style="stroke:#000000;stroke-width:1px;fill:none" d="m375.05 675.61-15-25.981"/>
          <path id="path3515" style="stroke:#000000;stroke-width:1px;fill:none" d="m337.55 662.62h30"/>
          <path id="path3517" style="stroke:#000000;stroke-width:1px;fill:none" d="m337.55 688.6 15-25.981"/>
          <path id="path3519" style="stroke:#000000;stroke-width:1px;fill:none" d="m360.05 701.59-15-25.981"/>
        </g>
        <g id="g3521" transform="translate(-22.5 -38.971)">
          <path id="path3523" style="stroke:#000000;stroke-width:1px;fill:none" d="m352.55 688.6h30"/>
          <path id="path3525" style="stroke:#000000;stroke-width:1px;fill:none" d="m367.55 688.6 15-25.981"/>
          <path id="path3527" style="stroke:#000000;stroke-width:1px;fill:none" d="m375.05 675.61-15-25.981"/>
          <path id="path3529" style="stroke:#000000;stroke-width:1px;fill:none" d="m337.55 662.62h30"/>
          <path id="path3531" style="stroke:#000000;stroke-width:1px;fill:none" d="m337.55 688.6 15-25.981"/>
          <path id="path3533" style="stroke:#000000;stroke-width:1px;fill:none" d="m360.05 701.59-15-25.981"/>
        </g>
        <g id="g3535" transform="translate(-45)">
          <path id="path3537" style="stroke:#000000;stroke-width:1px;fill:none" d="m352.55 688.6h30"/>
          <path id="path3539" style="stroke:#000000;stroke-width:1px;fill:none" d="m367.55 688.6 15-25.981"/>
          <path id="path3541" style="stroke:#000000;stroke-width:1px;fill:none" d="m375.05 675.61-15-25.981"/>
          <path id="path3543" style="stroke:#000000;stroke-width:1px;fill:none" d="m337.55 662.62h30"/>
          <path id="path3545" style="stroke:#000000;stroke-width:1px;fill:none" d="m337.55 688.6 15-25.981"/>
          <path id="path3547" style="stroke:#000000;stroke-width:1px;fill:none" d="m360.05 701.59-15-25.981"/>
        </g>
        <g id="g3549" transform="translate(-22.5 38.971)">
          <path id="path3551" style="stroke:#000000;stroke-width:1px;fill:none" d="m352.55 688.6h30"/>
          <path id="path3553" style="stroke:#000000;stroke-width:1px;fill:none" d="m367.55 688.6 15-25.981"/>
          <path id="path3555" style="stroke:#000000;stroke-width:1px;fill:none" d="m375.05 675.61-15-25.981"/>
          <path id="path3557" style="stroke:#000000;stroke-width:1px;fill:none" d="m337.55 662.62h30"/>
          <path id="path3559" style="stroke:#000000;stroke-width:1px;fill:none" d="m337.55 688.6 15-25.981"/>
          <path id="path3561" style="stroke:#000000;stroke-width:1px;fill:none" d="m360.05 701.59-15-25.981"/>
        </g>
        <g id="g3563" transform="translate(22.5 38.971)">
          <path id="path3565" style="stroke:#000000;stroke-width:1px;fill:none" d="m352.55 688.6h30"/>
          <path id="path3567" style="stroke:#000000;stroke-width:1px;fill:none" d="m367.55 688.6 15-25.981"/>
          <path id="path3569" style="stroke:#000000;stroke-width:1px;fill:none" d="m375.05 675.61-15-25.981"/>
          <path id="path3571" style="stroke:#000000;stroke-width:1px;fill:none" d="m337.55 662.62h30"/>
          <path id="path3573" style="stroke:#000000;stroke-width:1px;fill:none" d="m337.55 688.6 15-25.981"/>
          <path id="path3575" style="stroke:#000000;stroke-width:1px;fill:none" d="m360.05 701.59-15-25.981"/>
        </g>
      </g>
      <g id="g3577" transform="translate(-67.5 116.91)">
        <g id="g3579">
          <path id="path3581" style="stroke:#000000;stroke-width:1px;fill:none" d="m352.55 688.6h30"/>
          <path id="path3583" style="stroke:#000000;stroke-width:1px;fill:none" d="m367.55 688.6 15-25.981"/>
          <path id="path3585" style="stroke:#000000;stroke-width:1px;fill:none" d="m375.05 675.61-15-25.981"/>
          <path id="path3587" style="stroke:#000000;stroke-width:1px;fill:none" d="m337.55 662.62h30"/>
          <path id="path3589" style="stroke:#000000;stroke-width:1px;fill:none" d="m337.55 688.6 15-25.981"/>
          <path id="path3591" style="stroke:#000000;stroke-width:1px;fill:none" d="m360.05 701.59-15-25.981"/>
        </g>
        <g id="g3593" transform="translate(45)">
          <path id="path3595" style="stroke:#000000;stroke-width:1px;fill:none" d="m352.55 688.6h30"/>
          <path id="path3597" style="stroke:#000000;stroke-width:1px;fill:none" d="m367.55 688.6 15-25.981"/>
          <path id="path3599" style="stroke:#000000;stroke-width:1px;fill:none" d="m375.05 675.61-15-25.981"/>
          <path id="path3601" style="stroke:#000000;stroke-width:1px;fill:none" d="m337.55 662.62h30"/>
          <path id="path3603" style="stroke:#000000;stroke-width:1px;fill:none" d="m337.55 688.6 15-25.981"/>
          <path id="path3605" style="stroke:#000000;stroke-width:1px;fill:none" d="m360.05 701.59-15-25.981"/>
        </g>
        <g id="g3607" transform="translate(22.5 -38.971)">
          <path id="path3609" style="stroke:#000000;stroke-width:1px;fill:none" d="m352.55 688.6h30"/>
          <path id="path3611" style="stroke:#000000;stroke-width:1px;fill:none" d="m367.55 688.6 15-25.981"/>
          <path id="path3613" style="stroke:#000000;stroke-width:1px;fill:none" d="m375.05 675.61-15-25.981"/>
          <path id="path3615" style="stroke:#000000;stroke-width:1px;fill:none" d="m337.55 662.62h30"/>
          <path id="path3617" style="stroke:#000000;stroke-width:1px;fill:none" d="m337.55 688.6 15-25.981"/>
          <path id="path3619" style="stroke:#000000;stroke-width:1px;fill:none" d="m360.05 701.59-15-25.981"/>
        </g>
        <g id="g3621" transform="translate(-22.5 -38.971)">
          <path id="path3623" style="stroke:#000000;stroke-width:1px;fill:none" d="m352.55 688.6h30"/>
          <path id="path3625" style="stroke:#000000;stroke-width:1px;fill:none" d="m367.55 688.6 15-25.981"/>
          <path id="path3627" style="stroke:#000000;stroke-width:1px;fill:none" d="m375.05 675.61-15-25.981"/>
          <path id="path3629" style="stroke:#000000;stroke-width:1px;fill:none" d="m337.55 662.62h30"/>
          <path id="path3631" style="stroke:#000000;stroke-width:1px;fill:none" d="m337.55 688.6 15-25.981"/>
          <path id="path3633" style="stroke:#000000;stroke-width:1px;fill:none" d="m360.05 701.59-15-25.981"/>
        </g>
        <g id="g3635" transform="translate(-45)">
          <path id="path3637" style="stroke:#000000;stroke-width:1px;fill:none" d="m352.55 688.6h30"/>
          <path id="path3639" style="stroke:#000000;stroke-width:1px;fill:none" d="m367.55 688.6 15-25.981"/>
          <path id="path3641" style="stroke:#000000;stroke-width:1px;fill:none" d="m375.05 675.61-15-25.981"/>
          <path id="path3643" style="stroke:#000000;stroke-width:1px;fill:none" d="m337.55 662.62h30"/>
          <path id="path3645" style="stroke:#000000;stroke-width:1px;fill:none" d="m337.55 688.6 15-25.981"/>
          <path id="path3647" style="stroke:#000000;stroke-width:1px;fill:none" d="m360.05 701.59-15-25.981"/>
        </g>
        <g id="g3649" transform="translate(-22.5 38.971)">
          <path id="path3651" style="stroke:#000000;stroke-width:1px;fill:none" d="m352.55 688.6h30"/>
          <path id="path3653" style="stroke:#000000;stroke-width:1px;fill:none" d="m367.55 688.6 15-25.981"/>
          <path id="path3655" style="stroke:#000000;stroke-width:1px;fill:none" d="m375.05 675.61-15-25.981"/>
          <path id="path3657" style="stroke:#000000;stroke-width:1px;fill:none" d="m337.55 662.62h30"/>
          <path id="path3659" style="stroke:#000000;stroke-width:1px;fill:none" d="m337.55 688.6 15-25.981"/>
          <path id="path3661" style="stroke:#000000;stroke-width:1px;fill:none" d="m360.05 701.59-15-25.981"/>
        </g>
        <g id="g3663" transform="translate(22.5 38.971)">
          <path id="path3665" style="stroke:#000000;stroke-width:1px;fill:none" d="m352.55 688.6h30"/>
          <path id="path3667" style="stroke:#000000;stroke-width:1px;fill:none" d="m367.55 688.6 15-25.981"/>
          <path id="path3669" style="stroke:#000000;stroke-width:1px;fill:none" d="m375.05 675.61-15-25.981"/>
          <path id="path3671" style="stroke:#000000;stroke-width:1px;fill:none" d="m337.55 662.62h30"/>
          <path id="path3673" style="stroke:#000000;stroke-width:1px;fill:none" d="m337.55 688.6 15-25.981"/>
          <path id="path3675" style="stroke:#000000;stroke-width:1px;fill:none" d="m360.05 701.59-15-25.981"/>
        </g>
      </g>
      <g id="g3677" transform="translate(67.5 116.91)">
        <g id="g3679">
          <path id="path3681" style="stroke:#000000;stroke-width:1px;fill:none" d="m352.55 688.6h30"/>
          <path id="path3683" style="stroke:#000000;stroke-width:1px;fill:none" d="m367.55 688.6 15-25.981"/>
          <path id="path3685" style="stroke:#000000;stroke-width:1px;fill:none" d="m375.05 675.61-15-25.981"/>
          <path id="path3687" style="stroke:#000000;stroke-width:1px;fill:none" d="m337.55 662.62h30"/>
          <path id="path3689" style="stroke:#000000;stroke-width:1px;fill:none" d="m337.55 688.6 15-25.981"/>
          <path id="path3691" style="stroke:#000000;stroke-width:1px;fill:none" d="m360.05 701.59-15-25.981"/>
        </g>
        <g id="g3693" transform="translate(45)">
          <path id="path3695" style="stroke:#000000;stroke-width:1px;fill:none" d="m352.55 688.6h30"/>
          <path id="path3697" style="stroke:#000000;stroke-width:1px;fill:none" d="m367.55 688.6 15-25.981"/>
          <path id="path3699" style="stroke:#000000;stroke-width:1px;fill:none" d="m375.05 675.61-15-25.981"/>
          <path id="path3701" style="stroke:#000000;stroke-width:1px;fill:none" d="m337.55 662.62h30"/>
          <path id="path3703" style="stroke:#000000;stroke-width:1px;fill:none" d="m337.55 688.6 15-25.981"/>
          <path id="path3705" style="stroke:#000000;stroke-width:1px;fill:none" d="m360.05 701.59-15-25.981"/>
        </g>
        <g id="g3707" transform="translate(22.5 -38.971)">
          <path id="path3709" style="stroke:#000000;stroke-width:1px;fill:none" d="m352.55 688.6h30"/>
          <path id="path3711" style="stroke:#000000;stroke-width:1px;fill:none" d="m367.55 688.6 15-25.981"/>
          <path id="path3713" style="stroke:#000000;stroke-width:1px;fill:none" d="m375.05 675.61-15-25.981"/>
          <path id="path3715" style="stroke:#000000;stroke-width:1px;fill:none" d="m337.55 662.62h30"/>
          <path id="path3717" style="stroke:#000000;stroke-width:1px;fill:none" d="m337.55 688.6 15-25.981"/>
          <path id="path3719" style="stroke:#000000;stroke-width:1px;fill:none" d="m360.05 701.59-15-25.981"/>
        </g>
        <g id="g3721" transform="translate(-22.5 -38.971)">
          <path id="path3723" style="stroke:#000000;stroke-width:1px;fill:none" d="m352.55 688.6h30"/>
          <path id="path3725" style="stroke:#000000;stroke-width:1px;fill:none" d="m367.55 688.6 15-25.981"/>
          <path id="path3727" style="stroke:#000000;stroke-width:1px;fill:none" d="m375.05 675.61-15-25.981"/>
          <path id="path3729" style="stroke:#000000;stroke-width:1px;fill:none" d="m337.55 662.62h30"/>
          <path id="path3731" style="stroke:#000000;stroke-width:1px;fill:none" d="m337.55 688.6 15-25.981"/>
          <path id="path3733" style="stroke:#000000;stroke-width:1px;fill:none" d="m360.05 701.59-15-25.981"/>
        </g>
        <g id="g3735" transform="translate(-45)">
          <path id="path3737" style="stroke:#000000;stroke-width:1px;fill:none" d="m352.55 688.6h30"/>
          <path id="path3739" style="stroke:#000000;stroke-width:1px;fill:none" d="m367.55 688.6 15-25.981"/>
          <path id="path3741" style="stroke:#000000;stroke-width:1px;fill:none" d="m375.05 675.61-15-25.981"/>
          <path id="path3743" style="stroke:#000000;stroke-width:1px;fill:none" d="m337.55 662.62h30"/>
          <path id="path3745" style="stroke:#000000;stroke-width:1px;fill:none" d="m337.55 688.6 15-25.981"/>
          <path id="path3747" style="stroke:#000000;stroke-width:1px;fill:none" d="m360.05 701.59-15-25.981"/>
        </g>
        <g id="g3749" transform="translate(-22.5 38.971)">
          <path id="path3751" style="stroke:#000000;stroke-width:1px;fill:none" d="m352.55 688.6h30"/>
          <path id="path3753" style="stroke:#000000;stroke-width:1px;fill:none" d="m367.55 688.6 15-25.981"/>
          <path id="path3755" style="stroke:#000000;stroke-width:1px;fill:none" d="m375.05 675.61-15-25.981"/>
          <path id="path3757" style="stroke:#000000;stroke-width:1px;fill:none" d="m337.55 662.62h30"/>
          <path id="path3759" style="stroke:#000000;stroke-width:1px;fill:none" d="m337.55 688.6 15-25.981"/>
          <path id="path3761" style="stroke:#000000;stroke-width:1px;fill:none" d="m360.05 701.59-15-25.981"/>
        </g>
        <g id="g3763" transform="translate(22.5 38.971)">
          <path id="path3765" style="stroke:#000000;stroke-width:1px;fill:none" d="m352.55 688.6h30"/>
          <path id="path3767" style="stroke:#000000;stroke-width:1px;fill:none" d="m367.55 688.6 15-25.981"/>
          <path id="path3769" style="stroke:#000000;stroke-width:1px;fill:none" d="m375.05 675.61-15-25.981"/>
          <path id="path3771" style="stroke:#000000;stroke-width:1px;fill:none" d="m337.55 662.62h30"/>
          <path id="path3773" style="stroke:#000000;stroke-width:1px;fill:none" d="m337.55 688.6 15-25.981"/>
          <path id="path3775" style="stroke:#000000;stroke-width:1px;fill:none" d="m360.05 701.59-15-25.981"/>
        </g>
      </g>
    </g>
  </g>
  <metadata>
    <rdf:RDF>
      <cc:Work>
        <dc:format>image/svg+xml</dc:format>
        <dc:type rdf:resource="http://purl.org/dc/dcmitype/StillImage"/>
        <cc:license rdf:resource="http://creativecommons.org/licenses/publicdomain/"/>
        <dc:publisher>
          <cc:Agent rdf:about="http://openclipart.org/">
            <dc:title>Openclipart</dc:title>
          </cc:Agent>
        </dc:publisher>
        <dc:title>July 20 2012 lines accident</dc:title>
        <dc:date>2012-07-20T23:36:55</dc:date>
        <dc:description>I was rotating lines around in inkscape as I tend to do and then they started fitting together to make this mess I had never seen before.</dc:description>
        <dc:source>https://openclipart.org/detail/171266/july-20-2012-lines-accident-by-10binary-171266</dc:source>
        <dc:creator>
          <cc:Agent>
            <dc:title>10binary</dc:title>
          </cc:Agent>
        </dc:creator>
        <dc:subject>
          <rdf:Bag>
            <rdf:li>20</rdf:li>
            <rdf:li>2012</rdf:li>
            <rdf:li>July</rdf:li>
            <rdf:li>accident</rdf:li>
            <rdf:li>lines</rdf:li>
          </rdf:Bag>
        </dc:subject>
      </cc:Work>
      <cc:License rdf:about="http://creativecommons.org/licenses/publicdomain/">
        <cc:permits rdf:resource="http://creativecommons.org/ns#Reproduction"/>
        <cc:permits rdf:resource="http://creativecommons.org/ns#Distribution"/>
        <cc:permits rdf:resource="http://creativecommons.org/ns#DerivativeWorks"/>
      </cc:License>
    </rdf:RDF>
  </metadata>
</svg>
